<svg xmlns="http://www.w3.org/2000/svg" width="60" height="60" viewBox="0 0 60 60"><path data-name="Forma 1" d="M43.4 3.251l-6.816-.011c-7.655 0-12.6 5.09-12.6 12.969v5.979h-6.852a1.073 1.073 0 00-1.071 1.075v8.663A1.073 1.073 0 0017.132 33h6.851v21.862a1.073 1.073 0 001.071 1.075h8.938a1.073 1.073 0 001.071-1.075V33h8.01a1.073 1.073 0 001.071-1.075v-8.663a1.074 1.074 0 00-1.072-1.075h-8.008v-5.068c0-2.436.579-3.673 3.743-3.673h4.59a1.073 1.073 0 001.071-1.074V4.326A1.073 1.073 0 0043.4 3.251z" fill="#fff" fill-rule="evenodd"/></svg>