<svg xmlns="http://www.w3.org/2000/svg" viewBox="0 0 90.7 90.7"><circle cx="45.4" cy="45.4" fill="#3c5a99" r="40.1"/><path d="M44.5 47.6c0-.2-.1-.4-.1-.6.1-1.2-.1-2.4.5-3.5.2.2.4.3.6.5 1.3 1 .2 2.4.5 3.6h-1.5z" fill="#a2b1ce"/><path d="M46.2 44.6c-.3.7-.5 1.3-.8 2-.4-.7-2.3-1.4 0-2.1.3 0 .6.1.8.1z" fill="#e8ecf3"/><path d="M44.6 43.5h1c.2.5.3 1 .5 1.5-.5.4 0 .7 0 1l-.5.5c-.4.2-.5.6-.5 1-1.1-1.2-.3-2.6-.5-4z" fill="#a7b5d1"/><path d="M38.7 45.7v24.6c0 .4.3.6.6.6h9.1c.4 0 .6-.3.6-.6v-25h6.6c.3 0 .6-.3.6-.6l.6-7.5c0-.4-.3-.7-.6-.7H49v-5.3c0-1.3 1-2.3 2.3-2.3h5.1c.4 0 .6-.3.6-.6v-7.5c0-.4-.3-.6-.6-.6h-8.6c-5.1 0-9.2 4.1-9.2 9.2v7.3H34c-.4 0-.6.3-.6.6v7.5c0 .4.3.6.6.6h4.6l.1.3z" fill-rule="evenodd" clip-rule="evenodd" fill="#fff"/></svg>