<svg version="1.1" id="分離模式" xmlns="http://www.w3.org/2000/svg" x="0" y="0" viewBox="0 0 90.7 90.7" xml:space="preserve"><style>.st1{fill:#fff}</style><linearGradient id="SVGID_1_" gradientUnits="userSpaceOnUse" x1="11.153" y1="12.043" x2="97.83" y2="98.72" gradientTransform="matrix(1 0 0 -1 0 91.599)"><stop offset=".001" stop-color="#fbe18a"/><stop offset=".209" stop-color="#fcbb45"/><stop offset=".377" stop-color="#f75274"/><stop offset=".524" stop-color="#d53692"/><stop offset=".739" stop-color="#8f39ce"/><stop offset="1" stop-color="#5b4fe9"/></linearGradient><circle cx="45.4" cy="45.4" r="40.1" fill="url(#SVGID_1_)"/><circle class="st1" cx="59.6" cy="31.4" r="3.1"/><path class="st1" d="M45.7 32.3c-7.2 0-13.1 5.9-13.1 13.1s5.9 13.1 13.1 13.1 13.1-5.9 13.1-13.1S53 32.3 45.7 32.3zm0 21.5c-4.6 0-8.4-3.8-8.4-8.4s3.8-8.4 8.4-8.4 8.4 3.8 8.4 8.4c0 4.6-3.7 8.4-8.4 8.4z"/><path class="st1" d="M56.1 72H34.9c-8.8 0-16-7.2-16-16V34.8c0-8.8 7.2-16 16-16h21.2c8.8 0 16 7.2 16 16V56c0 8.8-7.2 16-16 16zM34.9 23.8c-6 0-11 4.9-11 11V56c0 6 4.9 11 11 11h21.2c6 0 11-4.9 11-11V34.8c0-6-4.9-11-11-11H34.9z"/></svg>