<svg data-name="圖層 1" xmlns="http://www.w3.org/2000/svg" viewBox="0 0 56.75 54.07"><g data-name="TYPE A"><path d="M56.75 23.03c0-12.7-12.73-23-28.37-23S0 10.33 0 23.03c0 11.38 10.1 20.91 23.73 22.72.93.2 2.18.61 2.5 1.4a5.68 5.68 0 01.09 2.56l-.4 2.43c-.13.72-.57 2.81 2.46 1.53s16.34-9.62 22.29-16.47c4.11-4.51 6.08-9.09 6.08-14.17" fill="#fff"/><path d="M22.61 16.89h-2a.55.55 0 00-.55.55v12.37a.55.55 0 00.55.55h2a.55.55 0 00.55-.55V17.44a.55.55 0 00-.55-.55m13.7 0h-2a.55.55 0 00-.55.55v7.35l-5.67-7.65v-.06h-2.44a.55.55 0 00-.55.55v12.18a.55.55 0 00.55.55h2a.55.55 0 00.55-.55V22.5l5.68 7.67a.44.44 0 00.14.13h2.33a.55.55 0 00.55-.55V17.44a.55.55 0 00-.55-.55M17.81 27.26H12.4v-9.82a.55.55 0 00-.55-.55h-2a.55.55 0 00-.55.55v12.37a.56.56 0 00.15.38.56.56 0 00.38.15h8a.55.55 0 00.55-.55v-2a.55.55 0 00-.55-.56m29.47-7.24a.55.55 0 00.55-.56v-2a.55.55 0 00-.55-.55h-8a.53.53 0 00-.38.16.58.58 0 00-.15.38v12.39a.56.56 0 00.15.38.53.53 0 00.38.16h8a.55.55 0 00.55-.55v-2a.55.55 0 00-.55-.56h-5.41v-2.07h5.41a.54.54 0 00.55-.55v-2a.54.54 0 00-.55-.55h-5.41v-2.08z" fill="#2bac38"/></g></svg>