<svg xmlns="http://www.w3.org/2000/svg" viewBox="0 0 90.7 90.7"><path d="M86.8 42.5C86.8 24.1 68.2 9 45.4 9S4 24.1 4 42.5c0 16.6 14.8 30.4 34.6 33.1 1.3.3 3.2.9 3.7 2 .3 1.2.4 2.5.1 3.7l-.4 3.5c-.1 1.1-.8 4.1 3.6 2.2 4.5-1.8 23.8-14 32.5-24 5.8-6.4 8.7-13 8.7-20.5" fill="#2bac38"/><path d="M36.5 33h-3.1c-.4 0-.8.4-.8.8v19.1c0 .4.4.8.8.8h3.1c.4 0 .8-.4.8-.8V34c0-.6-.3-1-.8-1m21.1 0h-3.1c-.4 0-.8.4-.8.8v11.4L45 33.4v-.1h-3.8c-.4 0-.8.4-.8.8v18.8c0 .4.4.8.8.8h3.1c.4 0 .8-.4.8-.8V41.6l8.8 11.8c0 .1.1.1.3.1h3.7c.4 0 .8-.4.8-.8V34c-.2-.6-.5-1-1.1-1M29.1 49h-8.3V34c0-.4-.4-.8-.8-.8h-3.1c-.4 0-.8.4-.8.8v19c0 .3.1.4.3.6.1.1.4.3.6.3h12.4c.4 0 .8-.4.8-.8V50c-.3-.6-.5-1-1.1-1m45.4-11.1c.4 0 .8-.4.8-.8V34c0-.4-.4-.8-.8-.8H62.1c-.3 0-.4.1-.6.3-.1.1-.3.4-.3.6V53c0 .3.1.4.3.6.1.1.4.3.6.3h12.4c.4 0 .8-.4.8-.8V50c0-.4-.4-.8-.8-.8h-8.3V46h8.3c.4 0 .8-.4.8-.8V42c0-.4-.4-.8-.8-.8h-8.3V38h8.3v-.1z" fill="#fff"/></svg>